<?xml version="1.0" standalone="no"?>
<!DOCTYPE svg PUBLIC "-//W3C//DTD SVG 20010904//EN"
 "http://www.w3.org/TR/2001/REC-SVG-20010904/DTD/svg10.dtd">
<svg version="1.0" xmlns="http://www.w3.org/2000/svg"
 width="172.000000pt" height="172.000000pt" viewBox="0 0 172.000000 172.000000"
 preserveAspectRatio="xMidYMid meet">

<g transform="translate(0.000000,172.000000) scale(0.100000,-0.100000)"
fill="#000000" stroke="none">
<path d="M715 1686 c-253 -50 -467 -211 -582 -440 -35 -70 -88 -251 -77 -267
3 -5 238 -9 545 -9 l540 0 -3 -82 -3 -83 -543 -3 -542 -2 6 -43 c25 -186 141
-390 288 -510 299 -244 739 -248 1033 -10 216 175 327 422 310 693 -22 353
-266 652 -605 741 -99 27 -272 33 -367 15z"/>
</g>
</svg>
