<?xml version="1.0" standalone="no"?>
<!DOCTYPE svg PUBLIC "-//W3C//DTD SVG 20010904//EN"
 "http://www.w3.org/TR/2001/REC-SVG-20010904/DTD/svg10.dtd">
<svg version="1.0" xmlns="http://www.w3.org/2000/svg"
 width="256.000000pt" height="256.000000pt" viewBox="0 0 256.000000 256.000000"
 preserveAspectRatio="xMidYMid meet">

<g transform="translate(0.000000,256.000000) scale(0.100000,-0.100000)"
fill="#000000" stroke="none">
<path d="M228 2546 c-67 -24 -126 -65 -161 -113 -71 -98 -68 -33 -65 -1173 l3
-1025 24 -50 c32 -63 92 -124 156 -155 l50 -25 1045 0 1045 0 50 24 c63 32
124 92 155 156 l25 50 0 1045 0 1045 -24 49 c-31 63 -86 118 -153 153 l-53 28
-1030 2 c-830 2 -1037 0 -1067 -11z m1727 -394 c160 -82 201 -282 86 -413
-110 -126 -291 -126 -401 -2 -129 146 -70 359 119 430 49 18 147 11 196 -15z
m-1125 -792 l0 -560 511 -2 511 -3 -1 -130 c0 -71 -1 -133 -1 -138 0 -4 -297
-7 -660 -7 l-660 1 0 699 0 700 150 0 150 0 0 -560z"/>
</g>
</svg>
