<?xml version="1.0" standalone="no"?>
<!DOCTYPE svg PUBLIC "-//W3C//DTD SVG 20010904//EN"
 "http://www.w3.org/TR/2001/REC-SVG-20010904/DTD/svg10.dtd">
<svg version="1.0" xmlns="http://www.w3.org/2000/svg"
 width="500.000000pt" height="500.000000pt" viewBox="0 0 500.000000 500.000000"
 preserveAspectRatio="xMidYMid meet">

<g transform="translate(0.000000,500.000000) scale(0.100000,-0.100000)"
fill="#000000" stroke="none">
<path d="M1261 4229 c-87 -15 -261 -77 -331 -119 -90 -53 -213 -161 -278 -245
-70 -90 -145 -246 -174 -360 -31 -125 -31 -353 0 -468 45 -164 138 -323 259
-444 101 -102 149 -121 213 -88 41 21 60 53 60 102 0 40 -6 49 -80 129 -99
107 -164 209 -203 322 -27 78 -31 100 -31 207 -1 85 4 139 17 185 65 238 249
432 486 512 l96 33 1297 0 1298 0 32 -33 33 -32 3 -1055 2 -1055 28 -6 c51
-11 127 -37 164 -55 21 -11 40 -19 43 -19 3 0 4 501 3 1113 -3 926 -5 1118
-17 1147 -27 67 -82 138 -135 174 -101 70 -12 66 -1440 65 -712 -1 -1315 -5
-1345 -10z"/>
<path d="M1030 3385 l0 -120 67 0 68 0 5 -1230 c5 -1162 6 -1233 24 -1285 78
-235 223 -374 461 -446 56 -17 134 -18 1142 -21 1211 -4 1144 -8 1299 68 209
102 357 316 382 555 35 323 -163 637 -466 739 -133 45 -171 46 -1217 43 -1091
-3 -1006 2 -1084 -64 -66 -55 -76 -89 -79 -285 -2 -108 1 -192 7 -217 17 -61
68 -122 130 -154 51 -27 62 -28 150 -26 l96 3 0 115 0 115 -72 3 -73 3 0 131
0 130 93 -4 c113 -5 182 -35 261 -111 105 -103 165 -284 138 -415 -26 -127
-114 -256 -220 -323 -97 -62 -251 -86 -371 -58 -155 35 -291 166 -341 327 -19
62 -20 96 -20 1276 l0 1211 -24 51 c-38 82 -73 98 -229 104 l-127 5 0 -120z
m2934 -1983 c92 -43 150 -92 198 -166 119 -184 101 -410 -47 -574 -34 -37 -71
-64 -133 -94 l-85 -43 -724 -3 c-398 -1 -723 0 -723 3 0 3 16 27 35 54 107
149 148 357 109 549 -15 75 -100 272 -123 286 -6 4 -11 12 -11 17 0 6 257 9
718 7 l717 -3 69 -33z"/>
<path d="M1820 3340 l0 -120 740 0 c537 0 746 3 764 12 73 33 84 156 19 208
-25 20 -39 20 -774 20 l-749 0 0 -120z"/>
<path d="M1820 2780 l0 -120 880 2 880 3 26 27 c21 21 28 39 32 82 4 53 3 57
-31 91 l-35 35 -876 0 -876 0 0 -120z"/>
<path d="M1820 2220 l0 -120 748 0 c829 0 779 -4 808 66 18 43 18 68 -2 109
-32 67 -2 65 -818 65 l-736 0 0 -120z"/>
</g>
</svg>
